PathFileType	4	(X/Y/Z)	C:\Users\dbl\Desktop\LZH\BX\Trimmed_bx_n_10_501.trc
DataRate	CameraRate	NumFrames	NumMarkers	Units	OrigDataRate	OrigDataStartFrame	OrigNumFrames
50.00	50.00	      4	43	mm	50.00	1	      1457
Frame#	Time	Top.Head			R.Acromium			L.Acromium			Sternum			R.ASIS			L.ASIS			V.Sacral			R.Thigh.Upper			R.Thigh.Front			R.Thigh.Rear			R.Knee.Lat			R.Knee.Med			R.Shank.Upper			R.Shank.Front			R.Shank.Rear			R.Ankle.Lat			R.Midfoot.Lat			R.Toe.Lat			R.Toe.Tip			R.Toe.Med			R.Ankle.Med			R.Midfoot.Sup			R.Heel			L.Thigh.Upper			L.Thigh.Front			L.Thigh.Rear			L.Knee.Lat			L.Knee.Med			L.Shank.Upper			L.Shank.Front			L.Shank.Rear			L.Ankle.Lat			L.Midfoot.Lat			L.Toe.Lat			L.Toe.Tip			L.Toe.Med			L.Ankle.Med			L.Midfoot.Sup			L.Heel			origin1 front left			origin2 front right			origin 3 back right			origin 4 back leftt			
		X1	Y1	Z1	X2	Y2	Z2	X3	Y3	Z3	X4	Y4	Z4	X5	Y5	Z5	X6	Y6	Z6	X7	Y7	Z7	X8	Y8	Z8	X9	Y9	Z9	X10	Y10	Z10	X11	Y11	Z11	X12	Y12	Z12	X13	Y13	Z13	X14	Y14	Z14	X15	Y15	Z15	X16	Y16	Z16	X17	Y17	Z17	X18	Y18	Z18	X19	Y19	Z19	X20	Y20	Z20	X21	Y21	Z21	X22	Y22	Z22	X23	Y23	Z23	X24	Y24	Z24	X25	Y25	Z25	X26	Y26	Z26	X27	Y27	Z27	X28	Y28	Z28	X29	Y29	Z29	X30	Y30	Z30	X31	Y31	Z31	X32	Y32	Z32	X33	Y33	Z33	X34	Y34	Z34	X35	Y35	Z35	X36	Y36	Z36	X37	Y37	Z37	X38	Y38	Z38	X39	Y39	Z39	X40	Y40	Z40	X41	Y41	Z41	X42	Y42	Z42	X43	Y43	Z43	

1	0.000	-641.23724	270.54529	1836.71033	-637.62183	85.78590	1537.63757	-655.34302	445.90042	1528.30579	-543.46350	268.25433	1355.84546	-541.23352	139.21295	1035.15698	-523.59052	365.93658	1040.58179	-735.53882	258.43527	1049.80750	-606.51135	88.99839	828.40527	-521.51331	155.42921	810.71539	-630.17163	106.67419	718.42499	-646.30334	127.20313	602.85907	-628.45404	235.78395	562.69934	-676.64221	126.89684	538.98315	-600.36151	179.64459	524.55499	-685.74670	119.10857	487.86511	-682.58972	152.87639	213.73308	-608.45300	93.03163	168.77368	-561.60516	72.33306	164.78632	-482.97961	110.26748	157.93826	-528.59448	165.03777	163.00948	-635.22150	231.57843	219.05060	-592.32562	205.13274	168.49771	-719.70166	218.38217	171.22748	-608.91998	443.65103	853.99518	-527.28015	391.12027	816.39502	-631.19196	429.80219	741.53748	-647.49951	405.71921	607.07166	-635.58533	293.60565	571.65668	-662.85785	407.50333	560.89136	-605.43188	351.33789	537.21057	-717.93127	408.20212	497.58194	-678.18097	399.85669	214.29562	-582.87134	449.73044	164.55902	-543.67841	460.63507	157.38715	-480.74542	410.85825	166.40788	-523.43475	370.19196	178.14943	-643.58099	309.47092	208.87166	-594.02362	328.31662	170.09035	-732.18604	327.16196	161.78198	-443.50824	448.34711	146.99692	-450.43311	75.32072	143.78581	-806.46417	82.69379	142.08763	-799.47919	456.64734	145.22102	
2	0.020	-641.40332	270.68445	1836.66858	-637.56848	85.83914	1537.68127	-655.39941	445.95938	1528.22754	-543.50800	268.42831	1355.74890	-541.20288	139.25934	1035.15845	-523.49701	365.94098	1040.60791	-735.53601	258.49481	1049.82361	-606.51276	89.01655	828.42548	-521.41718	155.49629	810.70325	-630.14246	106.73727	718.35565	-646.22522	127.18987	602.79340	-628.41370	235.77739	562.69586	-676.49353	126.91840	538.97437	-600.31622	179.67043	524.52350	-685.68140	119.10802	487.88660	-682.58411	152.87408	213.78445	-608.43823	93.02988	168.74156	-561.66083	72.34414	164.77428	-482.96616	110.25176	157.95338	-528.60791	164.97682	162.99652	-635.19226	231.63367	219.03616	-592.38245	205.10777	168.49384	-719.72394	218.35580	171.21730	-608.68121	443.64194	853.98212	-527.14380	391.12378	816.41656	-631.03802	429.73792	741.49176	-647.33087	405.86002	607.15491	-635.58087	293.59305	571.66962	-662.74402	407.43182	560.87341	-605.30786	351.37930	537.22974	-717.78656	408.27594	497.58212	-678.17188	399.83408	214.27411	-582.81897	449.86938	164.57675	-543.64459	460.60367	157.43048	-480.78558	410.86646	166.38831	-523.57471	370.17368	178.08966	-643.61804	309.41293	208.89178	-594.01715	328.32269	170.07153	-732.17377	327.19589	161.78731	-443.53882	448.35458	147.08293	-450.42169	75.30332	143.74103	-806.47449	82.71574	142.09590	-799.49988	456.63773	145.23802	
3	0.040	-641.54932	270.82379	1836.62744	-637.50830	85.89513	1537.72449	-655.45013	446.02075	1528.15039	-543.53638	268.59634	1355.66248	-541.16718	139.30746	1035.15454	-523.40607	365.94669	1040.63293	-735.52118	258.54922	1049.83472	-606.50269	89.03039	828.45032	-521.32910	155.55743	810.69098	-630.11426	106.79292	718.29651	-646.13983	127.17878	602.73352	-628.36017	235.77142	562.67987	-676.35889	126.94284	538.97046	-600.26709	179.70235	524.49048	-685.61224	119.11503	487.90677	-682.57690	152.87111	213.83084	-608.42462	93.03768	168.71875	-561.70789	72.35796	164.75850	-482.95477	110.23682	157.96698	-528.61707	164.92567	162.98433	-635.16455	231.68103	219.02711	-592.42621	205.09035	168.48947	-719.74097	218.32939	171.20761	-608.46393	443.64548	853.96722	-527.00580	391.13007	816.44043	-630.89740	429.68094	741.44952	-647.16400	405.98526	607.22205	-635.57013	293.58759	571.67242	-662.63885	407.37875	560.85492	-605.18536	351.41370	537.24402	-717.65308	408.34113	497.58289	-678.16321	399.81381	214.25635	-582.77863	449.98395	164.58847	-543.61261	460.57855	157.46921	-480.81976	410.86880	166.37215	-523.69812	370.15384	178.03218	-643.65393	309.36517	208.90607	-594.01025	328.32565	170.05374	-732.16498	327.22504	161.78987	-443.56647	448.36160	147.15225	-450.40948	75.28968	143.70581	-806.48248	82.73338	142.10274	-799.52173	456.62811	145.25157	
4	0.060	-641.65619	270.96542	1836.58704	-637.43536	85.95697	1537.76685	-655.49139	446.08694	1528.07471	-543.53516	268.75418	1355.59167	-541.12109	139.35861	1035.14197	-523.32056	365.95471	1040.65527	-735.48431	258.59616	1049.83716	-606.47284	89.03740	828.48193	-521.25458	155.60838	810.67883	-630.08643	106.83699	718.25299	-646.04272	127.17218	602.68488	-628.28668	235.76788	562.64404	-676.24829	126.97119	538.97394	-600.21216	179.74371	524.45618	-685.53729	119.13422	487.92462	-682.56757	152.86714	213.86803	-608.41284	93.06005	168.71077	-561.74084	72.37475	164.73802	-482.94775	110.22358	157.97728	-528.61914	164.89137	162.97340	-635.14063	231.71538	219.02602	-592.44806	205.08469	168.48518	-719.74957	218.30351	171.19849	-608.28448	443.66934	853.94928	-526.86780	391.14059	816.46655	-630.78076	429.63718	741.41339	-647.00238	406.08228	607.26263	-635.54675	293.59515	571.65887	-662.54871	407.35590	560.83557	-605.06494	351.43588	537.25110	-717.53949	408.39175	497.58502	-678.15521	399.79816	214.24484	-582.75763	450.05676	164.59018	-543.58435	460.56467	157.49939	-480.84399	410.86230	166.36232	-523.79224	370.13269	177.98135	-643.68536	309.33374	208.91112	-594.00342	328.32361	170.03778	-732.16174	327.24576	161.78728	-443.58868	448.36707	147.19376	-450.39655	75.28301	143.68571	-806.48688	82.74418	142.10745	-799.54456	456.61917	145.25931	
